<svg xmlns="http://www.w3.org/2000/svg" width="32" height="32" viewBox="0 0 32 32">
  <defs>
    <filter id="glow" x="-50%" y="-50%" width="200%" height="200%">
      <feGaussianBlur in="SourceGraphic" stdDeviation="0.5"/>
    </filter>
    <radialGradient id="bg" cx="50%" cy="50%" r="50%">
      <stop offset="0%" stop-color="#232322"/>
      <stop offset="100%" stop-color="#191918"/>
    </radialGradient>
  </defs>
  <rect width="32" height="32" rx="6" fill="url(#bg)"/>
  <circle cx="15.67" cy="18.14" r="0.27" fill="hsla(28, 45%, 40%, 0.149)"/>
<circle cx="18.27" cy="13.89" r="0.27" fill="hsla(28, 45%, 40%, 0.158)"/>
<circle cx="11.43" cy="15.66" r="0.27" fill="hsla(28, 46%, 41%, 0.170)"/>
<circle cx="14.19" cy="11.53" r="0.27" fill="hsla(28, 46%, 41%, 0.175)"/>
<circle cx="13.32" cy="22.10" r="0.27" fill="hsla(29, 47%, 42%, 0.207)"/>
<circle cx="19.57" cy="20.25" r="0.27" fill="hsla(29, 47%, 42%, 0.210)"/>
<circle cx="22.16" cy="16.40" r="0.27" fill="hsla(29, 47%, 42%, 0.216)"/>
<circle cx="19.93" cy="10.00" r="0.27" fill="hsla(29, 48%, 43%, 0.244)"/>
<circle cx="9.53" cy="19.35" r="0.27" fill="hsla(29, 48%, 43%, 0.245)"/>
<circle cx="11.21" cy="8.77" r="0.27" fill="hsla(29, 48%, 44%, 0.262)"/>
<circle cx="8.20" cy="12.90" r="0.27" fill="hsla(29, 48%, 44%, 0.262)"/>
<circle cx="16.99" cy="24.23" r="0.27" fill="hsla(29, 49%, 44%, 0.270)"/>
<circle cx="16.46" cy="7.67" r="0.28" fill="hsla(29, 49%, 44%, 0.275)"/>
<circle cx="23.68" cy="12.54" r="0.28" fill="hsla(29, 49%, 44%, 0.284)"/>
<circle cx="22.73" cy="22.79" r="0.29" fill="hsla(29, 49%, 45%, 0.293)"/>
<circle cx="5.88" cy="16.86" r="0.30" fill="hsla(30, 50%, 46%, 0.320)"/>
<circle cx="25.09" cy="18.50" r="0.30" fill="hsla(30, 50%, 46%, 0.322)"/>
<circle cx="12.49" cy="25.54" r="0.31" fill="hsla(30, 51%, 46%, 0.344)"/>
<circle cx="8.87" cy="22.89" r="0.31" fill="hsla(30, 51%, 47%, 0.350)"/>
<circle cx="23.77" cy="8.05" r="0.33" fill="hsla(30, 52%, 47%, 0.375)"/>
<circle cx="6.41" cy="10.12" r="0.33" fill="hsla(30, 52%, 48%, 0.383)"/>
<circle cx="19.49" cy="6.05" r="0.33" fill="hsla(30, 52%, 48%, 0.386)"/>
<circle cx="26.45" cy="14.64" r="0.33" fill="hsla(30, 52%, 48%, 0.389)"/>
<circle cx="18.85" cy="26.38" r="0.33" fill="hsla(30, 52%, 48%, 0.392)"/>
<circle cx="10.79" cy="6.54" r="0.34" fill="hsla(30, 52%, 48%, 0.400)"/>
<circle cx="14.82" cy="5.08" r="0.35" fill="hsla(31, 53%, 49%, 0.418)"/>
<circle cx="5.38" cy="20.60" r="0.35" fill="hsla(31, 53%, 49%, 0.422)"/>
<circle cx="23.06" cy="24.65" r="0.36" fill="hsla(31, 54%, 50%, 0.441)"/>
<circle cx="4.15" cy="14.30" r="0.37" fill="hsla(31, 54%, 50%, 0.454)"/>
<circle cx="26.68" cy="20.97" r="0.37" fill="hsla(31, 54%, 50%, 0.456)"/>
<circle cx="26.24" cy="10.74" r="0.38" fill="hsla(31, 55%, 51%, 0.474)"/>
<circle cx="15.65" cy="27.87" r="0.38" fill="hsla(31, 55%, 51%, 0.484)"/>
<circle cx="11.13" cy="27.17" r="0.39" fill="hsla(31, 55%, 51%, 0.493)"/>
<circle cx="7.51" cy="7.98" r="0.40" fill="hsla(31, 56%, 52%, 0.517)"/>
<circle cx="17.76" cy="3.69" r="0.40" fill="hsla(32, 56%, 52%, 0.527)"/>
<circle cx="27.95" cy="16.87" r="0.40" fill="hsla(32, 56%, 52%, 0.529)"/>
<circle cx="7.55" cy="24.17" r="0.41" fill="hsla(32, 56%, 53%, 0.532)"/>
<circle cx="23.60" cy="6.22" r="0.41" fill="hsla(32, 57%, 53%, 0.548)"/>
<circle cx="3.93" cy="17.95" r="0.42" fill="hsla(32, 57%, 53%, 0.553)"/>
<circle cx="20.79" cy="27.13" r="0.42" fill="hsla(32, 57%, 54%, 0.563)"/>
<circle cx="10.68" cy="5.48" r="0.44" fill="hsla(32, 58%, 55%, 0.594)" filter="url(#glow)"/>
<circle cx="25.58" cy="22.86" r="0.44" fill="hsla(32, 58%, 55%, 0.594)" filter="url(#glow)"/>
<circle cx="5.01" cy="11.54" r="0.44" fill="hsla(32, 58%, 55%, 0.595)" filter="url(#glow)"/>
<circle cx="27.34" cy="12.73" r="0.44" fill="hsla(32, 59%, 55%, 0.610)" filter="url(#glow)"/>
<circle cx="5.62" cy="21.79" r="0.46" fill="hsla(33, 59%, 56%, 0.643)" filter="url(#glow)"/>
<circle cx="20.35" cy="4.63" r="0.46" fill="hsla(33, 60%, 56%, 0.644)" filter="url(#glow)"/>
<circle cx="17.57" cy="28.20" r="0.46" fill="hsla(33, 60%, 56%, 0.646)" filter="url(#glow)"/>
<circle cx="14.53" cy="3.85" r="0.47" fill="hsla(33, 60%, 57%, 0.659)" filter="url(#glow)"/>
<circle cx="25.33" cy="8.55" r="0.47" fill="hsla(33, 60%, 57%, 0.669)" filter="url(#glow)"/>
<circle cx="27.66" cy="19.01" r="0.48" fill="hsla(33, 61%, 57%, 0.679)" filter="url(#glow)"/>
<circle cx="9.58" cy="25.47" r="0.48" fill="hsla(33, 61%, 57%, 0.680)" filter="url(#glow)"/>
<circle cx="22.95" cy="25.44" r="0.48" fill="hsla(33, 61%, 58%, 0.687)" filter="url(#glow)"/>
<circle cx="4.57" cy="15.30" r="0.49" fill="hsla(33, 61%, 58%, 0.693)" filter="url(#glow)"/>
<circle cx="6.99" cy="9.12" r="0.49" fill="hsla(33, 61%, 58%, 0.704)" filter="url(#glow)"/>
<circle cx="13.36" cy="27.49" r="0.50" fill="hsla(33, 62%, 59%, 0.723)" filter="url(#glow)"/>
<circle cx="10.47" cy="6.64" r="0.51" fill="hsla(34, 63%, 60%, 0.746)" filter="url(#glow)"/>
<circle cx="26.58" cy="14.87" r="0.52" fill="hsla(34, 63%, 60%, 0.753)" filter="url(#glow)"/>
<circle cx="5.56" cy="19.38" r="0.53" fill="hsla(34, 64%, 61%, 0.784)" filter="url(#glow)"/>
<circle cx="16.80" cy="5.28" r="0.53" fill="hsla(34, 64%, 61%, 0.788)" filter="url(#glow)"/>
<circle cx="21.38" cy="7.17" r="0.53" fill="hsla(34, 64%, 61%, 0.789)" filter="url(#glow)"/>
<circle cx="25.24" cy="21.47" r="0.54" fill="hsla(34, 64%, 61%, 0.800)" filter="url(#glow)"/>
<circle cx="24.64" cy="11.12" r="0.54" fill="hsla(34, 64%, 62%, 0.805)" filter="url(#glow)"/>
<circle cx="17.80" cy="26.39" r="0.54" fill="hsla(34, 64%, 62%, 0.810)" filter="url(#glow)"/>
<circle cx="8.79" cy="23.20" r="0.55" fill="hsla(34, 64%, 62%, 0.811)" filter="url(#glow)"/>
<circle cx="6.49" cy="12.80" r="0.55" fill="hsla(34, 65%, 62%, 0.816)" filter="url(#glow)"/>
<circle cx="21.23" cy="23.51" r="0.56" fill="hsla(34, 65%, 63%, 0.838)" filter="url(#glow)"/>
<circle cx="13.67" cy="24.77" r="0.58" fill="hsla(35, 66%, 64%, 0.873)" filter="url(#glow)"/>
<circle cx="24.39" cy="17.16" r="0.58" fill="hsla(35, 67%, 64%, 0.881)" filter="url(#glow)"/>
<circle cx="9.97" cy="10.31" r="0.58" fill="hsla(35, 67%, 64%, 0.885)" filter="url(#glow)"/>
<circle cx="13.79" cy="7.53" r="0.58" fill="hsla(35, 67%, 64%, 0.888)" filter="url(#glow)"/>
<circle cx="7.97" cy="16.70" r="0.59" fill="hsla(35, 67%, 65%, 0.900)" filter="url(#glow)"/>
<circle cx="19.36" cy="9.48" r="0.59" fill="hsla(35, 67%, 65%, 0.900)" filter="url(#glow)"/>
<circle cx="22.15" cy="13.18" r="0.60" fill="hsla(35, 68%, 65%, 0.919)" filter="url(#glow)"/>
<circle cx="10.60" cy="20.53" r="0.61" fill="hsla(35, 68%, 66%, 0.931)" filter="url(#glow)"/>
<circle cx="16.70" cy="21.97" r="0.61" fill="hsla(35, 68%, 66%, 0.945)" filter="url(#glow)"/>
<circle cx="20.63" cy="19.51" r="0.61" fill="hsla(35, 68%, 66%, 0.946)" filter="url(#glow)"/>
<circle cx="11.80" cy="14.10" r="0.62" fill="hsla(36, 69%, 67%, 0.956)" filter="url(#glow)"/>
<circle cx="15.83" cy="11.54" r="0.63" fill="hsla(36, 69%, 67%, 0.977)" filter="url(#glow)"/>
<circle cx="14.29" cy="17.92" r="0.63" fill="hsla(36, 69%, 67%, 0.978)" filter="url(#glow)"/>
<circle cx="18.49" cy="15.65" r="0.64" fill="hsla(36, 70%, 68%, 1.002)" filter="url(#glow)"/>

</svg>