<svg xmlns="http://www.w3.org/2000/svg" width="32" height="32" viewBox="0 0 32 32">
  <defs>
    <filter id="glow" x="-50%" y="-50%" width="200%" height="200%">
      <feGaussianBlur in="SourceGraphic" stdDeviation="0.5"/>
    </filter>
    <radialGradient id="bg" cx="50%" cy="50%" r="50%">
      <stop offset="0%" stop-color="#232322"/>
      <stop offset="100%" stop-color="#191918"/>
    </radialGradient>
  </defs>
  <rect width="32" height="32" rx="6" fill="url(#bg)"/>
  <circle cx="12.40" cy="15.77" r="0.27" fill="hsla(28, 45%, 40%, 0.147)"/>
<circle cx="16.76" cy="18.18" r="0.27" fill="hsla(28, 45%, 40%, 0.161)"/>
<circle cx="15.22" cy="11.68" r="0.27" fill="hsla(28, 46%, 41%, 0.176)"/>
<circle cx="19.16" cy="14.04" r="0.27" fill="hsla(28, 46%, 41%, 0.186)"/>
<circle cx="20.72" cy="20.49" r="0.27" fill="hsla(29, 47%, 42%, 0.208)"/>
<circle cx="10.16" cy="19.61" r="0.27" fill="hsla(29, 47%, 42%, 0.211)"/>
<circle cx="14.38" cy="21.91" r="0.27" fill="hsla(29, 47%, 42%, 0.219)"/>
<circle cx="23.35" cy="16.45" r="0.27" fill="hsla(29, 47%, 42%, 0.223)"/>
<circle cx="17.28" cy="7.10" r="0.27" fill="hsla(29, 48%, 43%, 0.252)"/>
<circle cx="17.89" cy="24.68" r="0.27" fill="hsla(29, 48%, 44%, 0.262)"/>
<circle cx="20.63" cy="10.16" r="0.27" fill="hsla(29, 48%, 44%, 0.264)"/>
<circle cx="9.55" cy="13.22" r="0.27" fill="hsla(29, 48%, 44%, 0.264)"/>
<circle cx="12.26" cy="9.32" r="0.27" fill="hsla(29, 48%, 44%, 0.268)"/>
<circle cx="6.35" cy="16.98" r="0.28" fill="hsla(29, 49%, 44%, 0.282)"/>
<circle cx="23.71" cy="23.03" r="0.29" fill="hsla(29, 50%, 45%, 0.308)"/>
<circle cx="24.02" cy="12.71" r="0.30" fill="hsla(30, 50%, 46%, 0.320)"/>
<circle cx="9.56" cy="22.90" r="0.30" fill="hsla(30, 50%, 46%, 0.332)"/>
<circle cx="13.32" cy="24.97" r="0.31" fill="hsla(30, 51%, 47%, 0.352)"/>
<circle cx="25.15" cy="18.33" r="0.32" fill="hsla(30, 51%, 47%, 0.365)"/>
<circle cx="7.54" cy="10.60" r="0.32" fill="hsla(30, 51%, 47%, 0.368)"/>
<circle cx="11.27" cy="6.70" r="0.33" fill="hsla(30, 52%, 48%, 0.385)"/>
<circle cx="19.94" cy="5.97" r="0.34" fill="hsla(30, 52%, 48%, 0.394)"/>
<circle cx="6.57" cy="20.33" r="0.34" fill="hsla(30, 52%, 48%, 0.403)"/>
<circle cx="23.97" cy="8.29" r="0.34" fill="hsla(30, 52%, 48%, 0.403)"/>
<circle cx="19.27" cy="26.15" r="0.34" fill="hsla(30, 53%, 49%, 0.409)"/>
<circle cx="4.27" cy="14.37" r="0.35" fill="hsla(30, 53%, 49%, 0.413)"/>
<circle cx="27.52" cy="14.54" r="0.35" fill="hsla(30, 53%, 49%, 0.414)"/>
<circle cx="15.19" cy="5.32" r="0.35" fill="hsla(30, 53%, 49%, 0.415)"/>
<circle cx="23.51" cy="24.73" r="0.37" fill="hsla(31, 54%, 50%, 0.464)"/>
<circle cx="11.31" cy="27.48" r="0.38" fill="hsla(31, 55%, 51%, 0.478)"/>
<circle cx="15.93" cy="28.55" r="0.38" fill="hsla(31, 55%, 51%, 0.481)"/>
<circle cx="7.36" cy="7.76" r="0.38" fill="hsla(31, 55%, 51%, 0.486)"/>
<circle cx="26.32" cy="20.65" r="0.39" fill="hsla(31, 55%, 51%, 0.496)"/>
<circle cx="26.98" cy="10.44" r="0.39" fill="hsla(31, 55%, 52%, 0.502)"/>
<circle cx="8.06" cy="23.89" r="0.39" fill="hsla(31, 56%, 52%, 0.510)"/>
<circle cx="4.88" cy="17.87" r="0.40" fill="hsla(31, 56%, 52%, 0.520)"/>
<circle cx="17.74" cy="4.10" r="0.40" fill="hsla(32, 56%, 53%, 0.532)"/>
<circle cx="4.90" cy="11.55" r="0.42" fill="hsla(32, 57%, 53%, 0.559)"/>
<circle cx="28.52" cy="16.85" r="0.42" fill="hsla(32, 57%, 54%, 0.566)"/>
<circle cx="22.95" cy="7.00" r="0.42" fill="hsla(32, 57%, 54%, 0.570)"/>
<circle cx="10.33" cy="4.97" r="0.43" fill="hsla(32, 57%, 54%, 0.575)"/>
<circle cx="21.25" cy="28.03" r="0.43" fill="hsla(32, 58%, 54%, 0.581)" filter="url(#glow)"/>
<circle cx="4.58" cy="22.35" r="0.45" fill="hsla(32, 59%, 55%, 0.615)" filter="url(#glow)"/>
<circle cx="25.29" cy="22.63" r="0.45" fill="hsla(32, 59%, 56%, 0.625)" filter="url(#glow)"/>
<circle cx="26.59" cy="12.83" r="0.46" fill="hsla(33, 59%, 56%, 0.641)" filter="url(#glow)"/>
<circle cx="17.33" cy="27.17" r="0.46" fill="hsla(33, 60%, 56%, 0.647)" filter="url(#glow)"/>
<circle cx="14.29" cy="4.01" r="0.46" fill="hsla(33, 60%, 56%, 0.650)" filter="url(#glow)"/>
<circle cx="4.91" cy="15.37" r="0.47" fill="hsla(33, 60%, 57%, 0.652)" filter="url(#glow)"/>
<circle cx="20.36" cy="3.85" r="0.47" fill="hsla(33, 60%, 57%, 0.660)" filter="url(#glow)"/>
<circle cx="8.78" cy="26.34" r="0.47" fill="hsla(33, 60%, 57%, 0.670)" filter="url(#glow)"/>
<circle cx="6.36" cy="8.93" r="0.48" fill="hsla(33, 60%, 57%, 0.677)" filter="url(#glow)"/>
<circle cx="24.23" cy="9.12" r="0.48" fill="hsla(33, 61%, 58%, 0.685)" filter="url(#glow)"/>
<circle cx="13.16" cy="26.98" r="0.49" fill="hsla(33, 61%, 58%, 0.711)" filter="url(#glow)"/>
<circle cx="27.17" cy="18.86" r="0.50" fill="hsla(33, 62%, 59%, 0.713)" filter="url(#glow)"/>
<circle cx="23.20" cy="26.11" r="0.50" fill="hsla(33, 62%, 59%, 0.721)" filter="url(#glow)"/>
<circle cx="10.12" cy="6.82" r="0.50" fill="hsla(33, 62%, 59%, 0.723)" filter="url(#glow)"/>
<circle cx="4.56" cy="19.57" r="0.52" fill="hsla(34, 63%, 60%, 0.759)" filter="url(#glow)"/>
<circle cx="8.90" cy="22.60" r="0.52" fill="hsla(34, 63%, 60%, 0.771)" filter="url(#glow)"/>
<circle cx="25.87" cy="14.80" r="0.53" fill="hsla(34, 64%, 61%, 0.781)" filter="url(#glow)"/>
<circle cx="16.20" cy="4.61" r="0.54" fill="hsla(34, 64%, 61%, 0.799)" filter="url(#glow)"/>
<circle cx="5.10" cy="12.57" r="0.54" fill="hsla(34, 64%, 61%, 0.801)" filter="url(#glow)"/>
<circle cx="17.19" cy="25.87" r="0.54" fill="hsla(34, 64%, 62%, 0.807)" filter="url(#glow)"/>
<circle cx="20.98" cy="6.71" r="0.55" fill="hsla(34, 64%, 62%, 0.813)" filter="url(#glow)"/>
<circle cx="23.52" cy="11.34" r="0.55" fill="hsla(34, 65%, 62%, 0.815)" filter="url(#glow)"/>
<circle cx="24.87" cy="21.52" r="0.56" fill="hsla(34, 65%, 63%, 0.836)" filter="url(#glow)"/>
<circle cx="13.20" cy="24.02" r="0.56" fill="hsla(35, 65%, 63%, 0.843)" filter="url(#glow)"/>
<circle cx="7.97" cy="16.64" r="0.56" fill="hsla(35, 65%, 63%, 0.847)" filter="url(#glow)"/>
<circle cx="13.11" cy="7.92" r="0.57" fill="hsla(35, 66%, 63%, 0.862)" filter="url(#glow)"/>
<circle cx="22.96" cy="16.97" r="0.58" fill="hsla(35, 66%, 64%, 0.879)" filter="url(#glow)"/>
<circle cx="21.00" cy="24.14" r="0.58" fill="hsla(35, 67%, 64%, 0.881)" filter="url(#glow)"/>
<circle cx="10.30" cy="20.08" r="0.58" fill="hsla(35, 67%, 64%, 0.882)" filter="url(#glow)"/>
<circle cx="8.65" cy="9.85" r="0.58" fill="hsla(35, 67%, 64%, 0.886)" filter="url(#glow)"/>
<circle cx="18.42" cy="9.58" r="0.59" fill="hsla(35, 67%, 65%, 0.899)" filter="url(#glow)"/>
<circle cx="20.92" cy="13.25" r="0.60" fill="hsla(35, 68%, 65%, 0.915)" filter="url(#glow)"/>
<circle cx="15.79" cy="21.45" r="0.60" fill="hsla(35, 68%, 65%, 0.919)" filter="url(#glow)"/>
<circle cx="19.39" cy="19.15" r="0.61" fill="hsla(35, 68%, 66%, 0.931)" filter="url(#glow)"/>
<circle cx="10.57" cy="13.96" r="0.62" fill="hsla(36, 69%, 67%, 0.960)" filter="url(#glow)"/>
<circle cx="14.80" cy="11.58" r="0.62" fill="hsla(36, 69%, 67%, 0.965)" filter="url(#glow)"/>
<circle cx="17.27" cy="15.61" r="0.62" fill="hsla(36, 69%, 67%, 0.970)" filter="url(#glow)"/>
<circle cx="13.28" cy="17.85" r="0.63" fill="hsla(36, 69%, 67%, 0.971)" filter="url(#glow)"/>

</svg>